# xmcd
#
# Track frame offsets:
#	150
#	19515
#	38097
#	53047
#	71672
#	86807
#	104220
#	124710
#	139085
#	153502
#	171577
#	187490
#	204480
#	225487
#
# Disc length: 3230 seconds
#
# Revision: 2
# Processed by: cddbd v1.4PL0 Copyright (c) Steve Scherf et al.
# Submitted via: EasyCDDAExtractor 4.6.9.1
#
DISCID=cc0c9c0e
DTITLE=Gian e Giovani - Nunca Mais Vou Te Esquecer
DYEAR=1900
DGENRE=Sertanejo
TTITLE0=Nunca Mais Vou Te Esquecer
TTITLE1=Quando Outro Dia Amanhecer
TTITLE2=Na Rua
TTITLE3=Aperte o Play
TTITLE4=Sete Dias
TTITLE5=Em Algum Canto Dessa Casa
TTITLE6=O Amor Da Minha Vida
TTITLE7=Recheio De Caramelo
TTITLE8=Saudade Está Judiando
TTITLE9=Na Doçura Dos Seus Beijos
TTITLE10=Loucura Da Minha Paixão
TTITLE11=O Brasil Para Sem Caminhão
TTITLE12=Disk Paixão
TTITLE13=Vida De Peão
EXTD=
EXTT0=
EXTT1=
EXTT2=
EXTT3=
EXTT4=
EXTT5=
EXTT6=
EXTT7=
EXTT8=
EXTT9=
EXTT10=
EXTT11=
EXTT12=
EXTT13=
PLAYORDER=
